PathFileType	4	(X/Y/Z)	Running2.trc
DataRate	CameraRate	NumFrames	NumMarkers	Units	OrigDataRate	OrigDataStartFrame	OrigNumFrames
100	100	89	2	mm	100	1501	6000
Frame#	Time	mal_lat_left			mal_lat_right		
		X	Y	Z	X	Y	Z	
1501	7.5	620.587219238281	392.482879638672	281.388946533203	1149.06555175781	168.412979125977	84.0176239013672
1502	7.505	623.12353515625	392.932861328125	285.357727050781	1139.79187011719	169.186096191406	83.192138671875
1503	7.51	626.345947265625	393.210845947266	289.128814697266	1128.94372558594	170.395355224609	82.9926605224609
1504	7.515	630.178649902344	393.456817626953	292.716888427734	1117.32849121094	172.005554199219	83.4292984008789
1505	7.52	634.828796386719	393.563110351562	296.081329345703	1106.8681640625	173.099075317383	84.821403503418
1506	7.525	639.978820800781	393.438446044922	299.190948486328	1097.79187011719	174.014068603516	86.1359329223633
1507	7.53	645.815185546875	393.459808349609	302.077209472656	1088.87048339844	174.923522949219	87.0419464111328
1508	7.535	652.169128417969	393.268707275391	304.688537597656	1079.0048828125	175.80046081543	87.8456878662109
1509	7.54	658.946105957031	393.075775146484	306.975921630859	1067.94580078125	176.757019042969	88.7519073486328
1510	7.545	666.031555175781	392.776336669922	309.002899169922	1056.68408203125	177.425430297852	89.3037261962891
1511	7.55	673.519348144531	392.369415283203	310.524932861328	1045.56237792969	177.769546508789	89.502685546875
1512	7.555	681.178100585938	392.124084472656	311.834625244141	1034.12902832031	177.932846069336	89.5128860473633
1513	7.56	689.111450195312	391.838592529297	312.708282470703	1022.19946289062	178.040756225586	89.8619079589844
1514	7.565	697.223205566406	391.601135253906	313.175598144531	1010.32604980469	178.130157470703	90.0003128051758
1515	7.57	705.48291015625	391.549468994141	313.259429931641	998.418701171875	178.3720703125	90.2114486694336
1516	7.575	713.869506835938	391.480285644531	312.84716796875	986.445373535156	178.580917358398	90.5033950805664
1517	7.58	722.338806152344	391.400268554688	311.855712890625	974.629028320312	178.932159423828	90.8090515136719
1518	7.585	730.989440917969	391.492431640625	310.579010009766	962.663391113281	179.104232788086	91.1881637573242
1519	7.59	739.745056152344	391.581237792969	308.785095214844	950.571472167969	178.918884277344	91.6272659301758
1520	7.595	748.580688476562	391.742889404297	306.532653808594	938.530029296875	178.876678466797	92.1896057128906
1521	7.6	757.590454101562	391.853302001953	303.889221191406	926.501892089844	178.648300170898	92.7208938598633
1522	7.605	766.49853515625	392.013244628906	300.850677490234	914.429443359375	178.405822753906	93.4389801025391
1523	7.61	775.472106933594	392.108947753906	297.345062255859	902.421691894531	178.069274902344	94.2429275512695
1524	7.615	784.559265136719	392.225128173828	293.489410400391	890.535522460938	177.666397094727	95.1499099731445
1525	7.62	793.659912109375	392.27490234375	289.272399902344	878.681762695312	177.235534667969	96.2003402709961
1526	7.625	802.804870605469	392.257781982422	284.678009033203	866.806457519531	176.722869873047	97.5081024169922
1527	7.63	812.052673339844	392.052124023438	279.636077880859	855.130737304688	176.215057373047	98.8613052368164
1528	7.635	821.424865722656	391.869384765625	274.410858154297	843.408386230469	175.533645629883	100.709693908691
1529	7.64	830.886352539062	391.619506835938	268.928558349609	831.998107910156	174.884628295898	102.739822387695
1530	7.645	840.479675292969	391.248382568359	263.119842529297	820.822082519531	174.025650024414	105.050727844238
1531	7.65	849.937622070312	390.928497314453	257.117156982422	809.757690429688	173.087799072266	107.731857299805
1532	7.655	860.081115722656	390.309936523438	250.906036376953	799.127014160156	172.247406005859	110.598182678223
1533	7.66	870.186889648438	389.772888183594	244.516220092773	788.737670898438	171.292419433594	113.889381408691
1534	7.665	880.576049804688	389.126281738281	237.947647094727	778.650146484375	170.289901733398	117.327178955078
1535	7.67	891.244079589844	388.402191162109	231.188125610352	768.807434082031	169.346740722656	121.059204101562
1536	7.675	902.294616699219	387.4091796875	224.170440673828	759.38037109375	168.373184204102	125.026290893555
1537	7.68	913.425598144531	386.690856933594	217.148010253906	750.316833496094	167.390121459961	129.095565795898
1538	7.685	924.9599609375	385.834869384766	209.971557617188	741.626220703125	166.385467529297	133.315078735352
1539	7.69	936.760131835938	384.975616455078	202.833679199219	733.247314453125	165.291763305664	137.677947998047
1540	7.695	948.758728027344	384.222412109375	195.674667358398	725.146667480469	164.160690307617	142.138473510742
1541	7.7	960.891296386719	383.426300048828	188.626312255859	717.410522460938	163.005752563477	146.705978393555
1542	7.705	973.391540527344	382.626373291016	181.589019775391	709.982971191406	161.883270263672	151.283569335938
1543	7.71	986.079833984375	381.820404052734	174.737396240234	702.802490234375	160.687133789062	155.982192993164
1544	7.715	998.88916015625	381.057556152344	168.124282836914	696.038269042969	159.566589355469	160.707733154297
1545	7.72	1011.64929199219	380.314483642578	161.879348754883	689.430786132812	158.34895324707	165.523620605469
1546	7.725	1024.4521484375	379.465270996094	156.035842895508	683.291198730469	157.177093505859	170.27424621582
1547	7.73	1037.13220214844	378.606079101562	150.428634643555	677.20361328125	156.085159301758	175.064819335938
1548	7.735	1049.7041015625	377.744445800781	145.219436645508	671.505981445312	155.081787109375	179.945770263672
1549	7.74	1061.86889648438	376.879669189453	140.406326293945	666.074584960938	154.189010620117	184.776901245117
1550	7.745	1073.63012695312	376.035949707031	135.878158569336	660.783996582031	153.444534301758	189.569595336914
1551	7.75	1084.80444335938	375.22314453125	131.793502807617	655.786682128906	153.036483764648	194.140472412109
1552	7.755	1095.24291992188	374.430267333984	128.180770874023	650.721435546875	152.458435058594	198.843002319336
1553	7.76	1104.77612304688	373.698913574219	124.931091308594	645.71337890625	151.940322875977	203.479080200195
1554	7.765	1113.32421875	372.83984375	122.123710632324	640.700866699219	151.415573120117	208.097122192383
1555	7.77	1120.93701171875	372.019714355469	119.752754211426	635.893920898438	150.666137695312	212.820587158203
1556	7.775	1127.32629394531	371.077850341797	117.740058898926	630.132385253906	150.71745300293	217.806259155273
1557	7.78	1132.63098144531	370.092742919922	116.031097412109	624.713256835938	150.543762207031	222.948989868164
1558	7.785	1136.83728027344	369.072387695312	114.377349853516	619.219543457031	150.573425292969	228.255523681641
1559	7.79	1139.79553222656	367.918579101562	112.915969848633	613.923645019531	150.659622192383	233.677963256836
1560	7.795	1141.68115234375	366.854156494141	111.266761779785	609.067504882812	150.767532348633	239.352172851562
1561	7.8	1142.55126953125	365.772766113281	109.560760498047	604.685363769531	151.067840576172	245.045913696289
1562	7.805	1142.43725585938	364.942504882812	107.722633361816	600.850463867188	151.414840698242	250.872299194336
1563	7.81	1141.40502929688	364.11083984375	105.71337890625	597.683044433594	151.681274414062	256.745391845703
1564	7.815	1139.60815429688	363.663787841797	103.5546875	595.216186523438	151.993804931641	262.608551025391
1565	7.82	1137.02795410156	363.308380126953	101.126113891602	593.428649902344	152.22868347168	268.446746826172
1566	7.825	1133.74755859375	363.239288330078	98.4163208007812	592.402526855469	152.206329345703	274.084320068359
1567	7.83	1129.51672363281	363.157562255859	96.0102996826172	592.16796875	152.112289428711	279.507781982422
1568	7.835	1124.08142089844	362.419006347656	94.3271408081055	592.679138183594	151.993499755859	284.484252929688
1569	7.84	1115.46801757812	360.428985595703	92.3295440673828	594.003540039062	151.703643798828	289.294311523438
1570	7.845	1102.30737304688	357.619354248047	90.8897933959961	595.890930175781	151.355422973633	293.684356689453
1571	7.85	1088.61669921875	355.265594482422	90.1011734008789	598.48291015625	151.11279296875	297.681915283203
1572	7.855	1076.52746582031	353.773284912109	89.7424468994141	601.814819335938	150.834655761719	301.390014648438
1573	7.86	1065.75036621094	352.498687744141	90.0804977416992	605.830383300781	150.666763305664	304.696197509766
1574	7.865	1055.76965332031	351.658355712891	90.8834762573242	610.587951660156	150.617813110352	307.665893554688
1575	7.87	1045.08032226562	350.865905761719	91.8861465454102	616.070434570312	150.553207397461	310.268951416016
1576	7.875	1033.802734375	350.248352050781	93.1179122924805	622.15625	150.703384399414	312.462280273438
1577	7.88	1022.21984863281	349.994567871094	94.0697784423828	628.84228515625	150.927444458008	314.235931396484
1578	7.885	1010.96588134766	350.227783203125	94.67333984375	636.177673339844	151.263488769531	315.571899414062
1579	7.89	999.894775390625	350.801605224609	95.3606872558594	643.802551269531	151.755676269531	316.483032226562
1580	7.895	988.593200683594	351.577575683594	96.0121383666992	651.853332519531	152.228759765625	316.812133789062
1581	7.9	977.181274414062	352.28662109375	96.5217514038086	660.259216308594	152.685913085938	316.634063720703
1582	7.905	965.66650390625	352.831481933594	96.8387603759766	668.921875	153.12629699707	315.907592773438
1583	7.91	953.971557617188	353.208618164062	97.2835235595703	677.818237304688	153.584747314453	314.691040039062
1584	7.915	942.106506347656	353.595458984375	97.8834457397461	686.836853027344	153.89909362793	312.907073974609
1585	7.92	930.289855957031	353.690399169922	98.5234146118164	696.136901855469	154.351318359375	310.620666503906
1586	7.925	918.327209472656	353.807891845703	99.2118911743164	705.604370117188	154.733612060547	307.860992431641
1587	7.93	906.41943359375	353.858215332031	100.155448913574	715.098999023438	155.203125	304.602203369141
1588	7.935	894.516906738281	353.911773681641	101.149299621582	724.785095214844	155.641876220703	300.906982421875
1589	7.94	882.698608398438	353.974578857422	102.351768493652	734.616760253906	156.170288085938	296.748901367188
